<?xml version="1.0" encoding="UTF-8"?>
<svg width="300" height="180" viewBox="0 0 300 180" xmlns="http://www.w3.org/2000/svg">
    <!-- Background -->
    <rect width="300" height="180" fill="#fff"/>
    <!-- Header -->
    <rect x="0" y="0" width="300" height="32" fill="#232b36" rx="8"/>
    <rect x="20" y="10" width="60" height="10" fill="#fff" rx="2"/>
    <rect x="220" y="10" width="16" height="10" fill="#e74c3c" rx="2"/>
    <rect x="240" y="10" width="16" height="10" fill="#e74c3c" rx="2"/>
    <rect x="260" y="10" width="16" height="10" fill="#e74c3c" rx="2"/>
    <!-- Banner -->
    <rect x="0" y="40" width="300" height="36" fill="#fff"/>
    <rect x="20" y="52" width="100" height="10" fill="#232b36" rx="2"/>
    <rect x="20" y="66" width="50" height="6" fill="#e74c3c" rx="2"/>
    <!-- Product Grid with shadow -->
    <rect x="30" y="100" width="60" height="40" rx="10" fill="#f8f9fa" stroke="#232b36" stroke-width="1.5"/>
    <rect x="120" y="100" width="60" height="40" rx="10" fill="#f8f9fa" stroke="#232b36" stroke-width="1.5"/>
    <rect x="210" y="100" width="60" height="40" rx="10" fill="#f8f9fa" stroke="#232b36" stroke-width="1.5"/>
    <!-- Subtle shadow for grid -->
    <ellipse cx="60" cy="145" rx="28" ry="6" fill="#232b36" opacity="0.08"/>
    <ellipse cx="150" cy="145" rx="28" ry="6" fill="#232b36" opacity="0.08"/>
    <ellipse cx="240" cy="145" rx="28" ry="6" fill="#232b36" opacity="0.08"/>
</svg>
